<svg width="18" height="21" xmlns="http://www.w3.org/2000/svg">
    <path
        d="M8.54.02c2.824 0 5.113 2.253 5.113 5.031 0 2.778-2.289 5.03-5.113 5.03-2.823 0-5.112-2.252-5.112-5.03 0-2.779 2.29-5.03 5.112-5.03zm0 0c2.824 0 5.113 2.253 5.113 5.031 0 2.778-2.289 5.03-5.113 5.03-2.823 0-5.112-2.252-5.112-5.03 0-2.779 2.29-5.03 5.112-5.03zM6.623 11.76h4.262c3.647 0 6.604 2.908 6.604 6.497v.419c0 1.414-2.958 1.468-6.604 1.468H6.623c-3.647 0-6.604-.002-6.604-1.468v-.419c0-3.589 2.957-6.497 6.604-6.497z"
        fill="gray" fill-rule="nonzero" />
</svg>