<svg width="18" height="21" xmlns="http://www.w3.org/2000/svg">
    <path
        d="M2.93 8.68V5.785C2.93 2.591 5.548 0 8.778 0c3.229 0 5.847 2.59 5.847 5.785v2.896h1.484c.799 0 1.446.648 1.446 1.447v8.68c0 .8-.648 1.447-1.446 1.447H1.452A1.447 1.447 0 01.005 18.81v-8.681c0-.799.648-1.447 1.447-1.447H2.93zm1.463 0h8.77V5.785c0-2.395-1.964-4.337-4.385-4.337-2.422 0-4.385 1.942-4.385 4.338v2.896zm4.371 2.895c-.798 0-1.446.648-1.446 1.447v2.893c0 .8.648 1.447 1.446 1.447h.032c.799 0 1.447-.649 1.447-1.447v-2.893c0-.8-.648-1.447-1.447-1.447h-.032z"
        fill="gray" fill-rule="nonzero" />
</svg>